<svg width="150" height="150" viewBox="0 0 150 150" fill="none" xmlns="http://www.w3.org/2000/svg">
<path d="M112.501 78.25H81.2507V109.5C81.2507 112.938 78.4382 115.75 75.0007 115.75C71.5632 115.75 68.7507 112.938 68.7507 109.5V78.25H37.5007C34.0632 78.25 31.2507 75.4375 31.2507 72C31.2507 68.5625 34.0632 65.75 37.5007 65.75H68.7507V34.5C68.7507 31.0625 71.5632 28.25 75.0007 28.25C78.4382 28.25 81.2507 31.0625 81.2507 34.5V65.75H112.501C115.938 65.75 118.751 68.5625 118.751 72C118.751 75.4375 115.938 78.25 112.501 78.25Z" fill="black"/>
</svg>
