<svg width="150" height="150" viewBox="0 0 150 150" fill="none" xmlns="http://www.w3.org/2000/svg">
<path d="M75 9.5C40.5 9.5 12.5 37.5 12.5 72C12.5 106.5 40.5 134.5 75 134.5C109.5 134.5 137.5 106.5 137.5 72C137.5 37.5 109.5 9.5 75 9.5ZM100 78.25H81.25V97C81.25 100.438 78.4375 103.25 75 103.25C71.5625 103.25 68.75 100.438 68.75 97V78.25H50C46.5625 78.25 43.75 75.4375 43.75 72C43.75 68.5625 46.5625 65.75 50 65.75H68.75V47C68.75 43.5625 71.5625 40.75 75 40.75C78.4375 40.75 81.25 43.5625 81.25 47V65.75H100C103.438 65.75 106.25 68.5625 106.25 72C106.25 75.4375 103.438 78.25 100 78.25Z" fill="black"/>
</svg>
