<svg width="150" height="150" viewBox="0 0 150 150" fill="none" xmlns="http://www.w3.org/2000/svg">
<path d="M115.75 43.75V62.4375C115.75 62.4375 103.312 62.5 103.25 62.4375V43.75H84.5C84.5 43.75 84.5625 31.3125 84.5 31.25H103.25V12.5H115.75V31.25H134.5V43.75H115.75ZM97 68.75V50H78.25V31.25H28.25C21.375 31.25 15.75 36.875 15.75 43.75V118.75C15.75 125.625 21.375 131.25 28.25 131.25H103.25C110.125 131.25 115.75 125.625 115.75 118.75V68.75H97ZM28.25 118.75L47 93.75L59.5 112.5L78.25 87.5L103.25 118.75H28.25Z" fill="black"/>
</svg>
