<svg width="150" height="150" viewBox="0 0 150 150" fill="none" xmlns="http://www.w3.org/2000/svg">
<path d="M106.564 123.75C100.439 129.687 93.7513 128.75 87.3138 125.937C80.5013 123.062 74.2513 122.937 67.0638 125.937C58.0638 129.812 53.3138 128.687 47.9388 123.75C17.4388 92.3125 21.9388 44.4375 56.5638 42.6875C65.0013 43.125 70.8763 47.3125 75.8138 47.6875C83.1888 46.1875 90.2513 41.875 98.1263 42.4375C107.564 43.1875 114.689 46.9375 119.376 53.6875C99.8763 65.375 104.501 91.0625 122.376 98.25C118.814 107.625 114.189 116.938 106.501 123.812L106.564 123.75ZM75.1888 42.3125C74.2513 28.375 85.5638 16.875 98.5638 15.75C100.376 31.875 83.9388 43.875 75.1888 42.3125Z" fill="black"/>
</svg>
