<svg width="150" height="150" viewBox="0 0 150 150" fill="none" xmlns="http://www.w3.org/2000/svg">
<path d="M50.6802 107.68L74.9927 83.3672L99.3052 107.68C101.743 110.117 105.68 110.117 108.118 107.68C110.555 105.242 110.555 101.305 108.118 98.8672L79.4302 70.1797C76.9927 67.7422 73.0552 67.7422 70.6177 70.1797L41.8677 98.8672C39.4302 101.305 39.4302 105.242 41.8677 107.68C44.3052 110.055 48.3052 110.055 50.6802 107.68ZM37.4927 40.7422C37.4927 37.3047 40.3052 34.4922 43.7427 34.4922L106.243 34.4922C109.68 34.4922 112.493 37.3047 112.493 40.7422C112.493 44.1797 109.68 46.9922 106.243 46.9922L43.7427 46.9922C40.3052 46.9922 37.4927 44.1797 37.4927 40.7422Z" fill="black"/>
</svg>
