<svg width="150" height="150" viewBox="0 0 150 150" fill="none" xmlns="http://www.w3.org/2000/svg">
<path d="M99.3203 36.3828L75.0078 60.6328L50.6953 36.3203C48.2578 33.8828 44.3203 33.8828 41.8828 36.3203C39.4453 38.7578 39.4453 42.6953 41.8828 45.1328L70.5703 73.8203C73.0078 76.2578 76.9453 76.2578 79.3828 73.8203L108.07 45.1328C110.508 42.6953 110.508 38.7578 108.07 36.3203C105.695 33.9453 101.695 33.9453 99.3203 36.3828ZM37.5078 103.258C37.5078 99.8203 40.3203 97.0078 43.7578 97.0078L106.258 97.0078C109.695 97.0078 112.508 99.8203 112.508 103.258C112.508 106.695 109.695 109.508 106.258 109.508L43.7578 109.508C40.3203 109.508 37.5078 106.695 37.5078 103.258Z" fill="black"/>
</svg>
