<svg width="150" height="150" viewBox="0 0 150 150" fill="none" xmlns="http://www.w3.org/2000/svg">
<path d="M75 9.5C40.4375 9.5 12.5 37.4375 12.5 72C12.5 106.563 40.4375 134.5 75 134.5C109.563 134.5 137.5 106.563 137.5 72C137.5 37.4375 109.563 9.5 75 9.5ZM101.875 98.875C99.4375 101.312 95.5 101.312 93.0625 98.875L75 80.8125L56.9375 98.875C54.5 101.312 50.5625 101.312 48.125 98.875C45.6875 96.4375 45.6875 92.5 48.125 90.0625L66.1875 72L48.125 53.9375C45.6875 51.5 45.6875 47.5625 48.125 45.125C50.5625 42.6875 54.5 42.6875 56.9375 45.125L75 63.1875L93.0625 45.125C95.5 42.6875 99.4375 42.6875 101.875 45.125C104.312 47.5625 104.312 51.5 101.875 53.9375L83.8125 72L101.875 90.0625C104.25 92.4375 104.25 96.4375 101.875 98.875Z" fill="black"/>
</svg>
