<svg width="150" height="150" viewBox="0 0 150 150" fill="none" xmlns="http://www.w3.org/2000/svg">
<path d="M75 9.5C40.5 9.5 12.5 37.5 12.5 72C12.5 106.5 40.5 134.5 75 134.5C109.5 134.5 137.5 106.5 137.5 72C137.5 37.5 109.5 9.5 75 9.5ZM58.0625 98.8125L35.625 76.375C33.1875 73.9375 33.1875 70 35.625 67.5625C38.0625 65.125 42 65.125 44.4375 67.5625L62.5 85.5625L105.5 42.5625C107.937 40.125 111.875 40.125 114.313 42.5625C116.75 45 116.75 48.9375 114.313 51.375L66.875 98.8125C64.5 101.25 60.5 101.25 58.0625 98.8125Z" fill="black"/>
</svg>
