<svg width="150" height="150" viewBox="0 0 150 150" fill="none" xmlns="http://www.w3.org/2000/svg">
<path d="M37.5 115.75C37.5 122.625 43.125 128.25 50 128.25H100C106.875 128.25 112.5 122.625 112.5 115.75V53.25C112.5 46.375 106.875 40.75 100 40.75H50C43.125 40.75 37.5 46.375 37.5 53.25V115.75ZM112.5 22H96.875L92.4375 17.5625C91.3125 16.4375 89.6875 15.75 88.0625 15.75H61.9375C60.3125 15.75 58.6875 16.4375 57.5625 17.5625L53.125 22H37.5C34.0625 22 31.25 24.8125 31.25 28.25C31.25 31.6875 34.0625 34.5 37.5 34.5H112.5C115.938 34.5 118.75 31.6875 118.75 28.25C118.75 24.8125 115.938 22 112.5 22Z" fill="black"/>
</svg>
