<svg width="150" height="151" viewBox="0 0 150 151" fill="none" xmlns="http://www.w3.org/2000/svg">
<path d="M100 97.5H112.5C115.938 97.5 118.75 100.312 118.75 103.75C118.75 107.188 115.938 110 112.5 110H100C96.5625 110 93.75 107.188 93.75 103.75C93.75 100.312 96.5625 97.5 100 97.5ZM100 47.5H131.25C134.688 47.5 137.5 50.3125 137.5 53.75C137.5 57.1875 134.688 60 131.25 60H100C96.5625 60 93.75 57.1875 93.75 53.75C93.75 50.3125 96.5625 47.5 100 47.5ZM100 72.5H125C128.438 72.5 131.25 75.3125 131.25 78.75C131.25 82.1875 128.438 85 125 85H100C96.5625 85 93.75 82.1875 93.75 78.75C93.75 75.3125 96.5625 72.5 100 72.5ZM18.75 110C18.75 116.875 24.375 122.5 31.25 122.5H68.75C75.625 122.5 81.25 116.875 81.25 110V47.5H18.75V110ZM81.25 28.75H68.75L64.3125 24.3125C63.1875 23.1875 61.5625 22.5 59.9375 22.5H40.0625C38.4375 22.5 36.8125 23.1875 35.6875 24.3125L31.25 28.75H18.75C15.3125 28.75 12.5 31.5625 12.5 35C12.5 38.4375 15.3125 41.25 18.75 41.25H81.25C84.6875 41.25 87.5 38.4375 87.5 35C87.5 31.5625 84.6875 28.75 81.25 28.75Z" fill="black"/>
</svg>
