<svg width="150" height="150" viewBox="0 0 150 150" fill="none" xmlns="http://www.w3.org/2000/svg">
<path d="M68.75 109.5C68.75 116.375 63.125 122 56.25 122C49.375 122 43.75 116.375 43.75 109.5C43.75 102.625 49.375 97 56.25 97C63.125 97 68.75 102.625 68.75 109.5ZM56.25 59.5C49.375 59.5 43.75 65.125 43.75 72C43.75 78.875 49.375 84.5 56.25 84.5C63.125 84.5 68.75 78.875 68.75 72C68.75 65.125 63.125 59.5 56.25 59.5ZM56.25 22C49.375 22 43.75 27.625 43.75 34.5C43.75 41.375 49.375 47 56.25 47C63.125 47 68.75 41.375 68.75 34.5C68.75 27.625 63.125 22 56.25 22ZM93.75 47C100.625 47 106.25 41.375 106.25 34.5C106.25 27.625 100.625 22 93.75 22C86.875 22 81.25 27.625 81.25 34.5C81.25 41.375 86.875 47 93.75 47ZM93.75 59.5C86.875 59.5 81.25 65.125 81.25 72C81.25 78.875 86.875 84.5 93.75 84.5C100.625 84.5 106.25 78.875 106.25 72C106.25 65.125 100.625 59.5 93.75 59.5ZM93.75 97C86.875 97 81.25 102.625 81.25 109.5C81.25 116.375 86.875 122 93.75 122C100.625 122 106.25 116.375 106.25 109.5C106.25 102.625 100.625 97 93.75 97Z" fill="black"/>
</svg>
