<svg width="150" height="150" viewBox="0 0 150 150" fill="none" xmlns="http://www.w3.org/2000/svg">
<path d="M27 62.625C21.8125 62.625 17.625 66.8125 17.625 72C17.625 77.1875 21.8125 81.375 27 81.375C32.1875 81.375 36.375 77.1875 36.375 72C36.375 66.8125 32.1875 62.625 27 62.625ZM27 25.125C21.8125 25.125 17.625 29.3125 17.625 34.5C17.625 39.6875 21.8125 43.875 27 43.875C32.1875 43.875 36.375 39.6875 36.375 34.5C36.375 29.3125 32.1875 25.125 27 25.125ZM27 100.125C21.8125 100.125 17.625 104.375 17.625 109.5C17.625 114.625 21.875 118.875 27 118.875C32.125 118.875 36.375 114.625 36.375 109.5C36.375 104.375 32.1875 100.125 27 100.125ZM52 115.75H127C130.438 115.75 133.25 112.938 133.25 109.5C133.25 106.062 130.438 103.25 127 103.25H52C48.5625 103.25 45.75 106.062 45.75 109.5C45.75 112.938 48.5625 115.75 52 115.75ZM52 78.25H127C130.438 78.25 133.25 75.4375 133.25 72C133.25 68.5625 130.438 65.75 127 65.75H52C48.5625 65.75 45.75 68.5625 45.75 72C45.75 75.4375 48.5625 78.25 52 78.25ZM45.75 34.5C45.75 37.9375 48.5625 40.75 52 40.75H127C130.438 40.75 133.25 37.9375 133.25 34.5C133.25 31.0625 130.438 28.25 127 28.25H52C48.5625 28.25 45.75 31.0625 45.75 34.5Z" fill="black"/>
</svg>
