<svg width="150" height="150" viewBox="0 0 150 150" fill="none" xmlns="http://www.w3.org/2000/svg">
<path d="M108.064 32.6875C105.626 30.25 101.689 30.25 99.2515 32.6875L75.0015 56.875L50.689 32.625C48.2515 30.1875 44.314 30.1875 41.8765 32.625C39.439 35.0625 39.439 39 41.8765 41.4375L70.564 70.125C73.0015 72.5625 76.939 72.5625 79.3765 70.125L108.064 41.4375C110.501 39.0625 110.501 35.125 108.064 32.6875Z" fill="black"/>
<path d="M108.063 73.8755C105.625 71.438 101.688 71.438 99.2502 73.8755L75.0002 98.063L50.7502 73.813C48.3127 71.3755 44.3752 71.3755 41.9377 73.813C39.5002 76.2505 39.5002 80.188 41.9377 82.6255L70.6252 111.313C73.0627 113.75 77.0002 113.75 79.4377 111.313L108.125 82.6255C110.5 80.2505 110.5 76.313 108.063 73.8755Z" fill="black"/>
</svg>
