<svg width="150" height="151" viewBox="0 0 150 151" fill="none" xmlns="http://www.w3.org/2000/svg">
<path d="M35.626 39.4374C33.1885 41.8749 33.1885 45.8124 35.626 48.2499L59.876 72.4999L35.626 96.7499C33.1885 99.1874 33.1885 103.125 35.626 105.562C38.0635 108 42.001 108 44.4385 105.562L73.126 76.8749C75.5635 74.4374 75.5635 70.4999 73.126 68.0624L44.501 39.4374C42.0635 36.9999 38.0635 36.9999 35.626 39.4374Z" fill="black"/>
<path d="M76.8127 39.4376C74.3752 41.8751 74.3752 45.8126 76.8127 48.2501L101.063 72.5001L76.8127 96.7501C74.3752 99.1876 74.3752 103.125 76.8127 105.563C79.2502 108 83.1877 108 85.6252 105.563L114.313 76.8751C116.75 74.4376 116.75 70.5001 114.313 68.0626L85.6252 39.3751C83.2502 37.0001 79.2502 37.0001 76.8127 39.4376Z" fill="black"/>
</svg>
