<svg width="150" height="150" viewBox="0 0 150 150" fill="none" xmlns="http://www.w3.org/2000/svg">
<path d="M41.8765 111.313C44.314 113.75 48.2515 113.75 50.689 111.313L75.0015 87.1252L99.2515 111.375C101.689 113.813 105.626 113.813 108.064 111.375C110.501 108.938 110.501 105 108.064 102.563L79.3765 73.8752C76.939 71.4377 73.0015 71.4377 70.564 73.8752L41.8765 102.5C39.439 104.938 39.439 108.875 41.8765 111.313Z" fill="black"/>
<path d="M41.8765 70.1248C44.314 72.5623 48.2515 72.5623 50.689 70.1248L75.0015 45.9373L99.2515 70.1873C101.689 72.6248 105.626 72.6248 108.064 70.1873C110.501 67.7498 110.501 63.8123 108.064 61.3748L79.3765 32.6873C76.939 30.2498 73.0015 30.2498 70.564 32.6873L41.8765 61.3123C39.439 63.7498 39.439 67.6873 41.8765 70.1248Z" fill="black"/>
</svg>
