<svg width="150" height="150" viewBox="0 0 150 150" fill="none" xmlns="http://www.w3.org/2000/svg">
<path d="M54.5273 87.6826C54.5273 83.428 56.9897 79.9489 61.9136 77.2454C61.9668 77.2192 62.0195 77.2162 62.0723 77.2363C62.1089 77.2504 62.1455 77.2755 62.1821 77.3118C62.2456 77.3329 62.2944 77.3639 62.3281 77.4049C62.3652 77.4503 62.3838 77.5079 62.3838 77.5778V93.001C62.3838 93.3999 62.1821 93.6436 61.7793 93.7323C61.3315 93.8209 60.7051 93.8652 59.8994 93.8652C58.1982 93.8652 56.8779 93.3334 55.9375 92.2697C54.9976 91.2061 54.5273 89.677 54.5273 87.6826Z" fill="black"/>
<path d="M71.2471 74.2538C73.3955 73.8992 75.5894 73.7219 77.8271 73.7219C78.9463 73.7219 79.7744 73.7441 80.3115 73.7885C80.4458 73.7885 80.5356 73.8771 80.5806 74.0543C80.6699 74.1873 80.6924 74.3202 80.6475 74.4532C78.1406 80.3033 74.9624 85.0012 71.1128 88.5469C71.0679 88.6355 70.9785 88.6576 70.8442 88.6133C70.7847 88.5741 70.7383 88.5349 70.7051 88.4957C70.6636 88.4463 70.6426 88.3969 70.6426 88.3474V74.9186C70.6426 74.564 70.8442 74.3424 71.2471 74.2538Z" fill="black"/>
<path fill-rule="evenodd" clip-rule="evenodd" d="M30.5 19H118C124.875 19 130.5 24.625 130.5 31.5V119C130.5 125.875 124.875 131.5 118 131.5H30.5C23.625 131.5 18 125.875 18 119V31.5C18 24.625 23.625 19 30.5 19ZM49.5586 97.9869C51.9312 100.292 55.0869 101.444 59.0264 101.444C64.7563 101.444 70.2847 99.25 75.6113 94.8624C80.9834 90.4747 85.2358 84.3586 88.3691 76.514C88.5483 76.2039 88.772 76.1152 89.0405 76.2482C91.9951 78.1096 93.4727 80.9681 93.4727 84.824C93.4727 87.2616 92.6221 89.4775 90.9209 91.4719C89.2197 93.4663 86.8696 95.0397 83.8706 96.192C82.8857 96.5465 82.1245 97.1892 81.5874 98.1199C81.0952 99.0062 81.0054 99.9148 81.3188 100.846L81.4531 101.111C81.7666 102.131 82.3711 102.906 83.2661 103.438C84.2061 104.014 85.1685 104.147 86.1533 103.837C91.1221 102.286 94.9946 99.8484 97.77 96.5244C100.59 93.2004 102 89.3003 102 84.824C102 79.0625 99.896 74.5197 95.6885 71.1957C91.4805 67.8717 85.5269 66.2097 77.8271 66.2097C75.1416 66.2097 72.9258 66.3206 71.1797 66.5421C70.8218 66.6307 70.6426 66.4757 70.6426 66.0768V61.2238C70.6426 60.825 70.8218 60.6255 71.1797 60.6255H95.4868C96.4717 60.6255 97.2998 60.2931 97.9712 59.6283C98.6875 58.9192 99.0454 58.0771 99.0454 57.1021C99.0454 56.1271 98.6875 55.3071 97.9712 54.6423C97.2998 53.9332 96.4717 53.5786 95.4868 53.5786H71.1797C70.8218 53.5786 70.6426 53.3793 70.6426 52.9803V49.7893C70.6426 48.77 70.2622 47.8835 69.501 47.1301C68.7402 46.3767 67.8447 46 66.8154 46H66.144C65.1143 46 64.2192 46.3767 63.458 47.1301C62.7417 47.8835 62.3838 48.77 62.3838 49.7893V52.9803C62.3838 53.3793 62.1821 53.5786 61.7793 53.5786H52.5132C51.5283 53.5786 50.6777 53.9332 49.9614 54.6423C49.29 55.3071 48.9546 56.1271 48.9546 57.1021C48.9546 58.0771 49.29 58.9192 49.9614 59.6283C50.6777 60.2931 51.5283 60.6255 52.5132 60.6255H61.7793C61.9697 60.6255 62.1147 60.6699 62.2153 60.7588C62.3276 60.8582 62.3838 61.0132 62.3838 61.2238V68.0048C62.3838 68.3593 62.2271 68.603 61.9136 68.736C56.8555 70.5531 52.9385 73.2123 50.1631 76.7135C47.3877 80.1704 46 84.1149 46 88.5469C46 92.4913 47.186 95.6379 49.5586 97.9869Z" fill="black"/>
</svg>
