<svg width="150" height="150" viewBox="0 0 150 150" fill="none" xmlns="http://www.w3.org/2000/svg">
<path d="M77.1323 81.5835V63.3031H90.082C91.0508 63.3031 91.6616 63.4309 91.9141 63.6866C92.1123 63.8298 92.2437 64.1077 92.3091 64.5201C92.3408 64.7214 92.3564 64.955 92.3564 65.2206V79.3464C92.3564 80.3264 92.272 80.9443 92.1035 81.2C91.9351 81.4557 91.4297 81.5835 90.5874 81.5835H77.1323Z" fill="black"/>
<path d="M54.8965 63.6227C55.0649 63.4097 55.4648 63.3031 56.0967 63.3031H69.4253V81.5835H56.2861C55.9526 81.5835 55.6738 81.5603 55.4497 81.514C55.1934 81.4611 55.0088 81.3777 54.8965 81.2639C54.728 81.0083 54.6436 80.369 54.6436 79.3464V65.2206C54.6436 64.3684 54.728 63.8357 54.8965 63.6227Z" fill="black"/>
<path fill-rule="evenodd" clip-rule="evenodd" d="M30.5 19H118C124.875 19 130.5 24.625 130.5 31.5V119C130.5 125.875 124.875 131.5 118 131.5H30.5C23.625 131.5 18 125.875 18 119V31.5C18 24.625 23.625 19 30.5 19ZM70.3101 44.767C69.7202 45.2783 69.4253 46.2371 69.4253 47.6433V55.6969H54.2017C52.6855 55.6969 51.4429 55.8035 50.4746 56.0165C49.5479 56.1869 48.811 56.5278 48.2632 57.0392C47.7578 57.5505 47.4209 58.2749 47.2524 59.2124C47.084 60.1072 47 61.2791 47 62.7278V82.1588C47 83.5223 47.084 84.6729 47.2524 85.6104C47.4209 86.5051 47.7578 87.2296 48.2632 87.7834C48.811 88.2948 49.5479 88.6571 50.4746 88.8701C51.4429 89.0831 52.6855 89.1897 54.2017 89.1897H69.4253V102.293C69.4253 103.656 69.6572 104.615 70.1206 105.169C70.5835 105.723 71.6362 106 73.2788 106C74.7529 106 75.7637 105.659 76.311 104.977C76.8584 104.338 77.1323 103.465 77.1323 102.357V89.1897H92.7354C94.2935 89.1897 95.5361 89.0831 96.4624 88.8701C97.4312 88.6571 98.168 88.2948 98.6733 87.7834C99.2207 87.2722 99.5791 86.5691 99.7476 85.6742C99.8535 85.0831 99.9263 84.3988 99.9653 83.6213C99.9883 83.1659 100 82.6783 100 82.1588V62.7917C100 61.2577 99.8945 60.022 99.6841 59.0846C99.5156 58.1471 99.1577 57.4227 98.6104 56.9114C98.105 56.4 97.3677 56.0804 96.3994 55.9526C95.4727 55.7821 94.2305 55.6969 92.6724 55.6969H77.1323V47.6433C77.1323 46.2371 76.8164 45.2783 76.1846 44.767C75.5532 44.2556 74.5845 44 73.2788 44C71.8892 44 70.8994 44.2556 70.3101 44.767Z" fill="black"/>
</svg>
