<svg width="150" height="150" viewBox="0 0 150 150" fill="none" xmlns="http://www.w3.org/2000/svg">
<path d="M53.3413 77.819L58.8901 57.8757C58.8901 57.8334 58.9111 57.8121 58.9531 57.8121C58.9951 57.8121 59.0161 57.8334 59.0161 57.8757L64.5649 77.819C64.5908 77.8973 64.5928 77.9758 64.5708 78.0542C64.5571 78.1028 64.5342 78.1514 64.502 78.2C64.418 78.327 64.313 78.3905 64.1865 78.3905H53.7197C53.5933 78.3905 53.4883 78.327 53.4043 78.2C53.3203 78.073 53.2993 77.9459 53.3413 77.819Z" fill="black"/>
<path d="M89.4438 86.0757C89.4438 82.3496 92.4497 80.4865 98.4609 80.4865H101.046C101.424 80.4865 101.614 80.677 101.614 81.0581V82.2013C101.614 84.8265 100.878 86.9014 99.4067 88.4257C97.9355 89.9077 96.0015 90.6487 93.6055 90.6487C92.3867 90.6487 91.3774 90.2252 90.5791 89.3784C89.8223 88.5315 89.4438 87.4307 89.4438 86.0757Z" fill="black"/>
<path fill-rule="evenodd" clip-rule="evenodd" d="M30.5 19H118C124.875 19 130.5 24.625 130.5 31.5V119C130.5 125.875 124.875 131.5 118 131.5H30.5C23.625 131.5 18 125.875 18 119V31.5C18 24.625 23.625 19 30.5 19ZM40.478 95.2852C40.9824 96.005 41.6758 96.3649 42.5586 96.3649H44.5767C45.6274 96.3649 46.5732 96.0472 47.4141 95.4121C48.2969 94.7347 48.8643 93.8878 49.1167 92.8716L51.1343 85.6946C51.2183 85.3558 51.4497 85.1865 51.8276 85.1865H66.0786C66.3188 85.1865 66.4971 85.2418 66.6138 85.3524C66.7012 85.4354 66.7539 85.5494 66.772 85.6946L68.79 92.8716C69.084 93.8878 69.6514 94.7347 70.4922 95.4121C71.375 96.0472 72.3208 96.3649 73.3296 96.3649H75.5996C76.4824 96.3649 77.1763 96.005 77.6807 95.2852C78.1851 94.5653 78.29 93.782 77.9961 92.9352L64.9434 53.4297C64.6069 52.4135 63.9976 51.5879 63.1147 50.9528C62.2739 50.3176 61.3071 50 60.2144 50H57.9443C56.8936 50 55.9263 50.3176 55.0439 50.9528C54.2031 51.5879 53.5933 52.4135 53.2153 53.4297L40.1626 92.9352C39.8682 93.782 39.9736 94.5653 40.478 95.2852ZM84.2104 94.2054C86.1021 96.0685 88.4771 97 91.3354 97C95.7915 97 99.3018 95.2852 101.866 91.8553C101.866 91.8131 101.908 91.7919 101.992 91.7919C102.008 91.7919 102.021 91.795 102.031 91.8013C102.041 91.8074 102.048 91.8165 102.052 91.8286C102.054 91.8363 102.055 91.8452 102.055 91.8553V92.7446C102.097 93.7609 102.476 94.6288 103.19 95.3486C103.905 96.0261 104.767 96.3649 105.775 96.3649H106.469C107.436 96.3649 108.255 96.005 108.928 95.2852C109.643 94.5653 110 93.7185 110 92.7446V75.85C110 70.9806 108.928 67.572 106.784 65.6243C104.64 63.6766 100.878 62.7028 95.4971 62.7028C92.6807 62.7028 89.6753 63.0626 86.4805 63.7825C85.5557 63.9518 84.7988 64.4387 84.2104 65.2433C83.6216 66.0054 83.3276 66.8734 83.3276 67.8473C83.3276 68.6519 83.6426 69.3081 84.2734 69.8162C84.9038 70.282 85.5977 70.4091 86.354 70.1973C89.8853 69.3081 92.8701 68.8635 95.3081 68.8635C97.6621 68.8635 99.3018 69.2657 100.227 70.0703C101.151 70.8324 101.614 72.1874 101.614 74.1351V74.6432C101.614 75.0243 101.424 75.2148 101.046 75.2148H98.4609C92.7017 75.2148 88.4141 76.2311 85.5977 78.2635C82.8232 80.2959 81.436 83.1541 81.436 86.8379C81.436 89.8441 82.3608 92.3 84.2104 94.2054Z" fill="black"/>
</svg>
