<svg width="150" height="150" viewBox="0 0 150 150" fill="none" xmlns="http://www.w3.org/2000/svg">
<path d="M31.25 31.25H68.75C72.1875 31.25 75 28.4375 75 25C75 21.5625 72.1875 18.75 68.75 18.75H31.25C24.375 18.75 18.75 24.375 18.75 31.25V118.75C18.75 125.625 24.375 131.25 31.25 131.25H68.75C72.1875 131.25 75 128.438 75 125C75 121.562 72.1875 118.75 68.75 118.75H31.25V31.25Z" fill="black"/>
<path d="M129.062 72.8127L111.625 55.3752C109.625 53.3752 106.25 54.7502 106.25 57.5627V68.7502H62.5C59.0625 68.7502 56.25 71.5627 56.25 75.0002C56.25 78.4377 59.0625 81.2502 62.5 81.2502H106.25V92.4377C106.25 95.2502 109.625 96.6252 111.562 94.6252L129 77.1877C130.25 76.0002 130.25 74.0002 129.062 72.8127Z" fill="black"/>
</svg>
