<svg width="150" height="150" viewBox="0 0 150 150" fill="none" xmlns="http://www.w3.org/2000/svg">
<path d="M66.225 76.4501C64.575 76.3751 62.925 76.3 61.2 76.3C43.05 76.3 26.1 81.325 11.625 89.95C5.02501 93.85 1.20001 101.2 1.20001 108.925V121.3C1.20001 125.425 4.57501 128.8 8.70001 128.8H70.65C64.725 120.325 61.2 109.975 61.2 98.8C61.2 90.775 63.075 83.2751 66.225 76.4501Z" fill="black"/>
<path d="M61.2 68.8001C77.7686 68.8001 91.2 55.3686 91.2 38.8001C91.2 22.2315 77.7686 8.80005 61.2 8.80005C44.6315 8.80005 31.2 22.2315 31.2 38.8001C31.2 55.3686 44.6315 68.8001 61.2 68.8001Z" fill="black"/>
<path d="M141.825 98.8001C141.825 97.1501 141.6 95.6501 141.375 94.0751L147.675 88.6001C149.025 87.4001 149.325 85.4501 148.425 83.8751L144 76.2251C143.1 74.6501 141.225 73.9751 139.575 74.5751L131.625 77.2751C129.225 75.2501 126.525 73.6751 123.525 72.5501L121.875 64.3751C121.5 62.6501 120 61.3751 118.2 61.3751H109.35C107.55 61.3751 106.05 62.6501 105.675 64.3751L104.025 72.5501C101.025 73.6751 98.325 75.2501 95.925 77.2751L87.975 74.5751C86.25 73.9751 84.45 74.7251 83.55 76.2251L79.125 83.8751C78.225 85.4501 78.525 87.4001 79.875 88.6001L86.175 94.0751C85.95 95.6501 85.725 97.1501 85.725 98.8001C85.725 100.45 85.95 101.95 86.175 103.525L79.875 109C78.525 110.2 78.225 112.15 79.125 113.725L83.55 121.375C84.45 122.95 86.325 123.625 87.975 123.025L95.925 120.325C98.325 122.35 101.025 123.925 104.025 125.05L105.675 133.225C106.05 134.95 107.55 136.225 109.35 136.225H118.2C120 136.225 121.5 134.95 121.875 133.225L123.525 125.05C126.525 123.925 129.225 122.35 131.625 120.325L139.575 123.025C141.3 123.625 143.1 122.875 144 121.375L148.425 113.725C149.325 112.15 149.025 110.2 147.675 109L141.375 103.525C141.6 101.95 141.825 100.45 141.825 98.8001ZM113.7 113.8C105.45 113.8 98.7 107.05 98.7 98.8001C98.7 90.5501 105.45 83.8001 113.7 83.8001C121.95 83.8001 128.7 90.5501 128.7 98.8001C128.7 107.05 121.95 113.8 113.7 113.8Z" fill="black"/>
</svg>
