<svg width="150" height="150" viewBox="0 0 150 150" fill="none" xmlns="http://www.w3.org/2000/svg">
<path d="M75 12.5C40.5 12.5 12.5 40.5 12.5 75C12.5 109.5 40.5 137.5 75 137.5C109.5 137.5 137.5 109.5 137.5 75C137.5 40.5 109.5 12.5 75 12.5ZM62.5 100C59.0625 100 56.25 97.1875 56.25 93.75V56.25C56.25 52.8125 59.0625 50 62.5 50C65.9375 50 68.75 52.8125 68.75 56.25V93.75C68.75 97.1875 65.9375 100 62.5 100ZM87.5 100C84.0625 100 81.25 97.1875 81.25 93.75V56.25C81.25 52.8125 84.0625 50 87.5 50C90.9375 50 93.75 52.8125 93.75 56.25V93.75C93.75 97.1875 90.9375 100 87.5 100Z" fill="black"/>
</svg>
