<svg width="150" height="150" viewBox="0 0 150 150" fill="none" xmlns="http://www.w3.org/2000/svg">
<path d="M75 31.25V12.5L50 37.5L75 62.5V43.75C95.6875 43.75 112.5 60.5625 112.5 81.25C112.5 99.8125 98.9375 115.188 81.25 118.188V130.812C105.938 127.75 125 106.75 125 81.25C125 53.625 102.625 31.25 75 31.25Z" fill="black"/>
<path d="M37.5 81.2498C37.5 70.9373 41.6875 61.5623 48.5 54.7498L39.625 45.8748C30.625 54.9373 25 67.4373 25 81.2498C25 106.75 44.0625 127.75 68.75 130.812V118.187C51.0625 115.187 37.5 99.8123 37.5 81.2498Z" fill="black"/>
</svg>
