<svg width="150" height="150" viewBox="0 0 150 150" fill="none" xmlns="http://www.w3.org/2000/svg">
<path d="M121.875 72C121.875 70.5625 121.812 69.1875 121.687 67.75L133.312 58.9375C135.812 57.0625 136.5 53.5625 134.937 50.8125L123.25 30.625C121.687 27.875 118.312 26.75 115.437 28L102 33.6875C99.6875 32.0625 97.25 30.625 94.6875 29.4375L92.875 15C92.5 11.875 89.8125 9.5 86.6875 9.5H63.375C60.1875 9.5 57.5 11.875 57.125 15L55.3125 29.4375C52.75 30.625 50.3125 32.0625 48 33.6875L34.5625 28C31.6875 26.75 28.3125 27.875 26.75 30.625L15.0625 50.875C13.5 53.625 14.1875 57.0625 16.6875 59L28.3125 67.8125C28.1875 69.1875 28.125 70.5625 28.125 72C28.125 73.4375 28.1875 74.8125 28.3125 76.25L16.6875 85.0625C14.1875 86.9375 13.5 90.4375 15.0625 93.1875L26.75 113.375C28.3125 116.125 31.6875 117.25 34.5625 116L48 110.312C50.3125 111.937 52.75 113.375 55.3125 114.562L57.125 129C57.5 132.125 60.1875 134.5 63.3125 134.5H86.625C89.75 134.5 92.4375 132.125 92.8125 129L94.625 114.562C97.1875 113.375 99.625 111.937 101.937 110.312L115.375 116C118.25 117.25 121.625 116.125 123.187 113.375L134.875 93.1875C136.437 90.4375 135.75 87 133.25 85.0625L121.625 76.25C121.812 74.8125 121.875 73.4375 121.875 72ZM75.25 93.875C63.1875 93.875 53.375 84.0625 53.375 72C53.375 59.9375 63.1875 50.125 75.25 50.125C87.3125 50.125 97.125 59.9375 97.125 72C97.125 84.0625 87.3125 93.875 75.25 93.875Z" fill="black"/>
</svg>
