<svg width="150" height="150" viewBox="0 0 150 150" fill="none" xmlns="http://www.w3.org/2000/svg">
<path d="M75 12C62.6387 12 50.555 15.6656 40.2769 22.5331C29.9988 29.4007 21.988 39.1619 17.2576 50.5823C12.5271 62.0027 11.2894 74.5693 13.7009 86.6931C16.1125 98.817 22.0651 109.953 30.8059 118.694C39.5466 127.435 50.6831 133.388 62.8069 135.799C74.9307 138.211 87.4974 136.973 98.9177 132.242C110.338 127.512 120.099 119.501 126.967 109.223C133.834 98.9451 137.5 86.8613 137.5 74.5C137.495 57.9256 130.908 42.0316 119.188 30.3117C107.468 18.5918 91.5744 12.0053 75 12ZM80.14 77.63L58.08 93.19C57.5068 93.5842 56.837 93.8148 56.1426 93.857C55.4481 93.8993 54.7553 93.7516 54.1385 93.4298C53.5217 93.1081 53.0042 92.6244 52.6415 92.0307C52.2788 91.437 52.0847 90.7557 52.08 90.06V58.93C52.0863 58.2349 52.2812 57.5545 52.6439 56.9614C53.0066 56.3684 53.5234 55.8849 54.1394 55.5625C54.7553 55.2402 55.4471 55.0911 56.1412 55.1312C56.8352 55.1712 57.5053 55.3989 58.08 55.79L80.14 71.36C80.6454 71.7119 81.0583 72.1807 81.3434 72.7266C81.6284 73.2725 81.7773 73.8792 81.7773 74.495C81.7773 75.1108 81.6284 75.7175 81.3434 76.2634C81.0583 76.8093 80.6454 77.2781 80.14 77.63ZM98 90.65C98 92.43 96.28 93.88 94.18 93.88C92.08 93.88 90.36 92.43 90.36 90.65V58.33C90.36 56.55 92.08 55.1 94.18 55.1C96.28 55.1 98 56.55 98 58.33V90.65Z" fill="black"/>
</svg>
