<svg width="150" height="150" viewBox="0 0 150 150" fill="none" xmlns="http://www.w3.org/2000/svg">
<path d="M75 12C62.6387 12 50.555 15.6656 40.2769 22.5331C29.9988 29.4007 21.988 39.1619 17.2576 50.5823C12.5271 62.0027 11.2894 74.5693 13.7009 86.6931C16.1125 98.817 22.0651 109.953 30.8059 118.694C39.5466 127.435 50.6831 133.388 62.8069 135.799C74.9307 138.211 87.4974 136.973 98.9177 132.242C110.338 127.512 120.099 119.501 126.967 109.223C133.834 98.9451 137.5 86.8613 137.5 74.5C137.495 57.9256 130.908 42.0316 119.188 30.3117C107.468 18.5918 91.5744 12.0053 75 12ZM59.68 90.66C59.68 92.44 57.96 93.89 55.86 93.89C53.76 93.89 52 92.44 52 90.66V58.34C52 56.56 53.72 55.11 55.82 55.11C57.92 55.11 59.64 56.56 59.64 58.34L59.68 90.66ZM98 90.06C97.9937 90.7551 97.7989 91.4355 97.4362 92.0286C97.0735 92.6217 96.5566 93.1051 95.9407 93.4275C95.3248 93.7498 94.6329 93.8989 93.9389 93.8588C93.2449 93.8188 92.5748 93.5911 92 93.2L69.86 77.64C69.3546 77.287 68.9418 76.8172 68.6569 76.2705C68.3719 75.7239 68.223 75.1165 68.223 74.5C68.223 73.8835 68.3719 73.2761 68.6569 72.7295C68.9418 72.1828 69.3546 71.713 69.86 71.36L91.92 55.8C92.4948 55.4089 93.1649 55.1812 93.8589 55.1412C94.5529 55.1011 95.2448 55.2502 95.8607 55.5725C96.4766 55.8949 96.9935 56.3784 97.3562 56.9714C97.7188 57.5645 97.9137 58.2449 97.92 58.94L98 90.06Z" fill="black"/>
</svg>
