<svg width="150" height="151" viewBox="0 0 150 151" fill="none" xmlns="http://www.w3.org/2000/svg">
<path d="M80.0625 95.4375C80.9375 93.1875 80.375 90.625 78.625 88.875L65.5625 76L65.75 75.8125C76.625 63.6875 84.375 49.75 88.9375 35H101.063C104.438 35 107.25 32.1875 107.25 28.8125V28.6875C107.25 25.3125 104.438 22.5 101.063 22.5H63.5V16.25C63.5 12.8125 60.6875 10 57.25 10C53.8125 10 51 12.8125 51 16.25V22.5H13.4375C10.0625 22.5 7.25 25.3125 7.25 28.6875C7.25 32.125 10.0625 34.875 13.4375 34.875H77.0625C72.875 47 66.25 58.4375 57.25 68.4375C52.1875 62.875 47.9375 56.8125 44.375 50.4375C43.375 48.625 41.5625 47.5 39.5 47.5C35.1875 47.5 32.4375 52.1875 34.5625 55.9375C38.5 63 43.3125 69.75 48.9375 76L21.625 102.938C19.125 105.375 19.125 109.375 21.625 111.813C24.0625 114.25 28 114.25 30.5 111.813L57.25 85L69.875 97.625C73.0625 100.813 78.5 99.625 80.0625 95.4375V95.4375ZM110.375 60C106.625 60 103.25 62.3125 101.937 65.875L79 127.125C77.5 130.937 80.375 135 84.4375 135C86.875 135 89.0625 133.5 89.9375 131.187L95.5 116.25H125.188L130.813 131.187C131.688 133.437 133.875 135 136.312 135C140.375 135 143.25 130.937 141.813 127.125L118.875 65.875C117.5 62.3125 114.125 60 110.375 60V60ZM100.25 103.75L110.375 76.6875L120.5 103.75H100.25V103.75Z" fill="black"/>
</svg>
