<svg width="150" height="150" viewBox="0 0 150 150" fill="none" xmlns="http://www.w3.org/2000/svg">
<path d="M22.6875 22.6876C20.25 25.1251 20.25 29.0626 22.6875 31.5001L45.5625 54.3751L43.75 56.2501H25C21.5625 56.2501 18.75 59.0626 18.75 62.5001V87.5001C18.75 90.9376 21.5625 93.7501 25 93.7501H43.75L64.3125 114.313C68.25 118.25 75 115.438 75 109.875V83.8126L101.125 109.938C98.0625 112.25 94.75 114.188 91.125 115.625C88.875 116.563 87.5 118.938 87.5 121.375C87.5 125.875 92.0625 128.75 96.1875 127.063C101.188 125 105.875 122.25 110.062 118.875L118.438 127.25C120.875 129.688 124.812 129.688 127.25 127.25C129.688 124.813 129.688 120.875 127.25 118.438L31.5625 22.6876C29.125 20.2501 25.1875 20.2501 22.6875 22.6876ZM118.75 75.0001C118.75 80.1251 117.812 85.0626 116.188 89.6251L125.75 99.1876C129.25 91.8751 131.25 83.6876 131.25 75.0001C131.25 51.0626 116.25 30.5626 95.125 22.5001C91.4375 21.0626 87.5 23.9376 87.5 27.8751V29.0626C87.5 31.4376 89.0625 33.5001 91.3125 34.3751C107.375 40.8751 118.75 56.6251 118.75 75.0001ZM64.3125 35.6876L63.25 36.7501L75 48.5001V40.0626C75 34.5001 68.25 31.7501 64.3125 35.6876ZM103.125 75.0001C103.125 63.9376 96.75 54.4376 87.5 49.8126V61.0001L103 76.5001C103.062 76.0001 103.125 75.5001 103.125 75.0001Z" fill="black"/>
</svg>
